<?xml version="1.0" encoding="UTF-8" standalone="no"?>
<svg
   xmlns:dc="http://purl.org/dc/elements/1.1/"
   xmlns:cc="http://creativecommons.org/ns#"
   xmlns:rdf="http://www.w3.org/1999/02/22-rdf-syntax-ns#"
   xmlns:svg="http://www.w3.org/2000/svg"
   xmlns="http://www.w3.org/2000/svg"
   xmlns:sodipodi="http://sodipodi.sourceforge.net/DTD/sodipodi-0.dtd"
   xmlns:inkscape="http://www.inkscape.org/namespaces/inkscape"
   width="57.94379pt"
   version="1.1"
   height="15.92576pt"
   viewBox="0 0 57.94379 15.92576"
   id="svg2"
   inkscape:version="0.91 r13725"
   sodipodi:docname="FAU Logo White.svg">
  <metadata
     id="metadata1651">
    <rdf:RDF>
      <cc:Work
         rdf:about="">
        <dc:format>image/svg+xml</dc:format>
        <dc:type
           rdf:resource="http://purl.org/dc/dcmitype/StillImage" />
        <dc:title></dc:title>
      </cc:Work>
    </rdf:RDF>
  </metadata>
  <sodipodi:namedview
     pagecolor="#ffffff"
     bordercolor="#666666"
     borderopacity="1"
     objecttolerance="10"
     gridtolerance="10"
     guidetolerance="10"
     inkscape:pageopacity="0"
     inkscape:pageshadow="2"
     inkscape:window-width="1301"
     inkscape:window-height="744"
     id="namedview1649"
     showgrid="false"
     inkscape:zoom="4.8314668"
     inkscape:cx="30.098951"
     inkscape:cy="4.4438921"
     inkscape:window-x="65"
     inkscape:window-y="24"
     inkscape:window-maximized="1"
     inkscape:current-layer="svg2"
     fit-margin-top="0"
     fit-margin-left="0"
     fit-margin-right="0"
     fit-margin-bottom="0" />
  <g
     id="Schrift und Katze in Kreis"
     transform="matrix(0.39999938,0,0,0.39999938,-2.7607593,-5.874044)">
    <g
       style="fill:#ffffff"
       transform="matrix(2.2629394,0,0,2.2629394,-460.51275,-822.79893)"
       clip-path="url(#Clip2)"
       id="Schrift">
      <path
         transform="translate(206.552,371.49)"
         d="m 5.63799,4.46457 7.26341,0 L 12.9014,0 0,0 0,0.0382377 1.31041,2.18445 0,2.18445 l 0,1.43203 0,0.84809 0,1.76971 0,4.48122 0,4.5617 5.63799,0 0,-4.5617 7.26341,0 0,-4.48122 -7.26341,0 0,-1.76971 z"
         id="F"
         style="fill:#ffffff;fill-rule:nonzero;stroke:none"
         inkscape:connector-curvature="0" />
      <path
         transform="translate(218.066,371.566)"
         d="M 9.45185,10.4351 6.56053,15.2382 0,15.2382 9.48777,0 l 9.45043,15.2382 -6.579,0 -2.90735,-4.8031 z"
         id="A"
         style="fill:#ffffff;fill-rule:nonzero;stroke:none"
         inkscape:connector-curvature="0" />
      <path
         transform="translate(235.3,371.566)"
         d="m 15.3445,0 -5.66526,0 1.27346,2.10854 -1.31179,0 0,5.51938 c 0,1.09083 -0.87516,2.03277 -2.03384,2.03277 -1.12248,0 -2.05477,-0.94194 -2.05477,-2.03277 L 5.53378,0 0.0374725,0 1.31182,2.10854 0,2.10854 0,7.62792 c 0,4.20138 3.44154,7.61028 7.70054,7.61028 4.26046,0 7.68146,-3.4089 7.68146,-7.61028 L 15.3445,0 l 0,0 z"
         id="U"
         style="fill:#ffffff;fill-rule:nonzero;stroke:none"
         inkscape:connector-curvature="0" />
    </g>
    <g
       id="Katze in Kreis">
      <path
         inkscape:connector-curvature="0"
         style="fill:#ffffff;fill-rule:nonzero;stroke:none"
         id=" Katze"
         d="m 140.41533,32.945724 c -0.16315,0.288435 -0.26567,0.673519 -0.26567,1.140726 0.0602,0.510292 -0.31002,0.953715 0.0602,1.463691 0.43426,0.367683 1.33875,0.428556 1.13056,1.201599 -0.61755,0.652337 -1.70557,1.216488 -1.3383,2.318313 0,0.244624 -0.32564,0.322016 -0.57569,0.405971 -0.16633,0.429733 0.0238,1.059282 -0.65114,1.122645 0.0749,0.794065 -0.70495,1.931192 0.3043,2.355267 0.24999,-0.200044 0.69963,-0.385152 0.92253,-0.03892 0.45576,1.081233 0.0812,2.050902 -0.6119,2.907651 -0.34935,0.728667 -0.0387,1.504629 -0.3887,2.212024 l 0.47334,1.430177 c -0.49446,0.218148 -0.29577,1.134412 -0.9914,1.176276 -0.0787,0.10138 0.0198,0.24485 0.0662,0.346456 l -0.0851,-0.221089 c -0.20512,-0.08373 -0.43134,0.200496 -0.44861,0.442405 l -0.49438,-0.238741 0.0205,-0.101379 -0.31072,-0.101832 c 1.54303,-1.934361 0,-4.54964 0.0787,-6.811674 -0.0787,-0.167458 -0.057,-0.367502 -0.20194,-0.447836 -1.1267,1.743142 -0.73564,3.844508 -1.20862,5.689935 -0.41246,0.205248 -0.78363,0.343061 -0.8438,0.709884 -0.063,-0.08033 -0.12385,-0.02353 -0.19937,0 -0.10814,0.07739 0.015,0.161574 0.015,0.265669 -0.015,-0.06223 -0.0387,-0.14596 -0.14112,-0.164063 -0.26815,0.08056 0.14112,0.164063 -0.0419,0.220636 0.0781,-0.09595 -0.0813,-0.163836 -0.16929,-0.220636 -0.16254,0.44512 -0.32509,0.262727 -0.73821,0.751975 -0.0205,-0.07966 -0.0787,-0.07966 -0.11745,-0.101154 l -0.1024,0.185109 -0.31328,-0.143018 -0.0755,0.185108 c -0.17119,-0.101832 -0.24671,-0.432674 -0.0624,-0.753106 0.0624,-0.06178 0.11742,-0.02308 0.16574,0 l 0.0387,-0.07988 c -0.10177,-0.349624 -0.0182,0.143244 0.12063,0.122199 -0.0963,-0.656252 0.8019,-0.572976 0.92575,-1.116082 0.0845,-2.119695 0.62045,-4.107687 0.31068,-6.385336 -1.5801,-1.140069 -3.14039,-2.641529 -3.2463,-4.943165 0.0426,-0.224483 -0.12383,-0.467523 -0.18047,-0.71226 -1.64253,1.852329 -0.96734,4.640271 -2.10044,6.834643 -0.0742,1.259099 0.32863,2.656238 0.4368,3.862611 0.0211,0.507578 -0.63872,0.955413 -0.3888,1.460049 -0.18945,-0.224031 -0.28927,0.103869 -0.45822,0.16972 0,0.23874 -0.0995,0.405972 -0.24128,0.525228 -0.57888,-0.01788 -0.32801,1.340566 -1.09055,0.570261 l 0.0419,0.0387 -0.0419,0.06585 -0.0781,-0.02421 0.0781,-0.08033 c -0.0781,-0.02082 -0.12127,-0.06246 -0.1664,-0.02082 l -0.0419,0.08373 c -0.0211,-0.346004 -0.59069,-0.107037 -0.80187,-0.244398 -0.2413,-0.370216 -0.12066,-0.850865 0,-1.283313 -1.00063,-0.02421 -1.6006,2.196636 -2.62811,0.817148 l -0.14177,-0.471144 0.0605,0.04186 c 0.22881,-1.235791 1.95007,-1.459822 1.82939,-2.800161 -0.10238,-2.886153 -0.83806,-5.552801 -0.65757,-8.441895 -0.5331,-0.220411 -0.73821,-0.851771 -1.37693,-0.83412 -0.69631,0.06427 -0.73502,0.750617 -0.89886,1.22244 0.18689,0.200044 -0.0624,0.38832 -0.10174,0.549442 -0.36739,0.199817 -0.74114,0.11903 -1.07327,0 -0.43134,-0.406198 -0.87999,-0.994336 -1.51615,-0.994336 l -0.0813,-0.271779 c 0.28638,-0.340346 0.94623,-0.220863 1.23007,0.167005 0.10495,0.07785 0.18687,0.286941 0.34944,0.226973 0.71998,-0.08011 0.10557,-0.95926 0.81979,-1.040477 0.0845,-0.180017 0.27138,-0.445935 0.0269,-0.567998 l -1.14815,-0.18667 c -0.33118,1.139119 -2.09756,0 -1.70876,1.547806 -0.20512,0.09844 -0.51263,0.09844 -0.61567,0.283546 0.12447,-0.405971 0.39263,-0.8744 0,-1.219294 -0.55679,-0.204796 -0.63551,0.628214 -1.12638,0.73593 -0.0211,-0.146412 0.1232,-0.30776 -0.0211,-0.512103 -0.22239,-0.221021 -0.61118,0.246208 -0.73822,-0.04033 0.40927,-0.407623 1.00926,-0.346116 1.23325,-0.892231 -0.24735,-0.75279 -1.42012,0.07861 -1.47996,-0.874808 0.43071,-0.770214 0.53375,-1.607298 0.45183,-2.464363 -0.063,-0.54641 -0.22624,-1.117892 -0.45183,-1.683672 0.14111,-0.367343 -0.12672,-1.017735 0.47007,-1.158173 0.78366,0.301424 0.38623,1.423774 1.24733,1.586389 1.00381,-0.690672 1.99484,-1.262449 3.28569,-1.140092 0.65693,-0.428239 0.57246,-1.544863 1.31678,-1.95088 0.6742,0.568609 0.48798,1.464326 0.73182,2.195255 -0.22243,0.344849 0.0819,0.712215 0.0425,1.056702 0.19011,0.263112 0.41312,0.12238 0.56064,-0.04306 -0.29183,-1.053579 0.73566,-2.031418 0.5088,-3.089727 0.53693,-0.813006 0.32575,-1.889373 1.07003,-2.662755 -0.22878,-0.489406 0.30817,-0.66845 0.42881,-1.179105 0.47327,-0.812983 0.28861,-2.25959 1.64253,-2.417747 0.18685,-0.956906 1.29628,-0.694134 1.62106,-1.605714 0.4131,-1.097299 1.31678,-0.12075 2.00987,-0.671934 0.20735,0.07925 0.41315,-0.07925 0.51265,-0.223805 0.14496,0.670056 0.94622,0.367366 1.44061,0.38513 l 0.83805,-0.219324 c 0.32575,0.792368 1.1088,0.586667 1.76668,0.48936 0.14114,-0.125502 0.18622,0.09731 0.24639,0.137564 -0.20735,0.06434 -0.29183,0.367049 -0.33118,0.550574 0.37375,1.139118 2.11548,0.201876 2.01691,1.686817 1.2445,1.140454 2.47984,2.867212 1.87994,4.680868 -0.16316,0.507441 -0.30754,1.193972 0.0819,1.604446 0.57886,-0.03994 0.86489,-0.468813 0.90698,-0.956906 0.10229,-1.586705 -0.96673,-3.698594 0.94003,-4.738822 0.14754,-0.977522 -0.0387,-2.276403 0.74111,-2.949334 0.30753,-0.42851 0.35008,-1.277655 0.96514,-1.180666 0.0629,0.30905 -0.26499,0.713166 0.18353,0.892232 0.12333,-1.056725 1.23262,-1.13595 1.51888,-2.09254 0.34668,-0.14166 0.47002,-0.8133 0.9665,-0.52679 0.0788,0.07893 0.16339,0.162276 0.18059,0.28495 0.24666,0.140438 0.32858,-0.18667 0.47069,-0.28495 1.46118,0.266891 1.00384,-1.403482 2.34418,-1.423769 0.38945,-0.56862 0.6963,-1.482094 1.47702,-1.622824 0.3279,0.03899 0.98528,-0.101427 0.80176,0.506498 -0.0996,0.611729 -0.51324,1.363869 0.12061,1.831388 0.57886,0.997164 -1.02172,1.76989 -0.16248,2.683348 -0.50939,0.770554 -0.53382,1.606054 -1.50055,1.871972 0.14369,1.380687 -0.8176,2.010485 -1.27268,3.212061 -0.87983,0.5255 -0.81964,1.910283 -1.2686,2.680836 -0.69948,0.593977 -0.96515,2.073215 -2.155,1.709334 -0.75922,0.445664 0.14505,1.36229 -0.65693,1.709063 -1.32586,0.837084 -3.4408,0.736903 -4.2007,2.056106 z m -19.22781,0.532809 c 0.18303,0.161303 0.3888,0.07923 0.57248,0.01455 0.0874,-0.381916 0.37053,-0.766729 0.51486,-1.072905 -0.18687,-0.101402 -0.36736,-0.06117 -0.55421,0.01774 -0.1869,0.347089 -0.57569,0.615542 -0.53313,1.040612 l 0,0 z m 14.81825,8.698988 c 0.22557,0.2272 0.53693,0.462772 0.90108,0.534959 -0.14173,-0.432674 -0.28671,-1.185554 -0.84127,-1.265888 -0.10238,0.24485 -0.10238,0.468428 -0.0598,0.730929 l 0,0 z m -16.6902,-5.507564 c 0.4368,-0.04026 1.16924,0.06085 1.25053,-0.5718 0.18689,-0.180016 0.34623,0.06436 0.51807,0.125548 0.75936,0 1.59741,-0.346139 1.8806,-1.119204 0.10561,-0.225366 -0.0419,-0.286534 -0.16255,-0.446591 -1.02817,-0.467207 -1.78431,0.548016 -2.44124,1.094131 -0.49438,-0.0415 -0.96509,-0.183502 -1.47677,-0.0792 -0.28607,0.303008 -0.13855,0.997119 0.43136,0.997119 l 0,0 z m -0.65695,-2.137573 c 0.12319,-0.259581 0.3888,-0.690943 0.0426,-0.935974 -0.38943,0.162932 -0.63614,0.774649 -0.0426,0.935974 z m 1.76894,0.547722 -0.0995,-0.321066 c -0.048,0.03895 -0.0669,0.100135 -0.10883,0.119778 -0.41247,0.103348 -0.003,0.385129 0.20835,0.201288 l 0,0 z" />
      <path
         inkscape:connector-curvature="0"
         style="fill:none;stroke:#fffffc;stroke-width:0.76787192;stroke-linecap:butt;stroke-linejoin:miter;stroke-dasharray:none;stroke-opacity:1"
         id=" Kreis"
         d="m 131.59259,54.115659 c 10.62653,0 19.31283,-8.59736 19.31283,-19.133062 0,-10.533146 -8.68245,-19.111293 -19.31283,-19.111293 -10.63177,0 -19.29654,8.57783 -19.29654,19.111293 0,10.530045 8.66446,19.133062 19.29654,19.133062 z" />
    </g>
  </g>
  <defs
     id="defs4">
    <clipPath
       id="Clip0-8">
      <path
         d="M 78.7914,7.42806 7.96911,39 0,6.04149 2.5997,0 l 75.4917,0.198087 0.7,7.229973 z"
         transform="translate(195.165,355.676)"
         id="path51-0"
         inkscape:connector-curvature="0" />
    </clipPath>
  </defs>
</svg>